<svg width="24" height="24" viewBox="0 0 24 24" fill="none" xmlns="http://www.w3.org/2000/svg">
<path d="M12 0C9.62664 0 7.30656 0.703788 5.33317 2.02236C3.35978 3.34094 1.82171 5.21509 0.913459 7.4078C0.00520706 9.60051 -0.232433 12.0133 0.23059 14.3411C0.693612 16.6689 1.8365 18.8071 3.51473 20.4853C5.19296 22.1635 7.33116 23.3064 9.65893 23.7694C11.9867 24.2324 14.3995 23.9948 16.5922 23.0866C18.7849 22.1783 20.6591 20.6402 21.9776 18.6668C23.2962 16.6935 24 14.3734 24 12C23.9966 8.81846 22.7312 5.76821 20.4815 3.51852C18.2318 1.26883 15.1816 0.00344108 12 0V0ZM12 21C10.22 21 8.47992 20.4722 6.99988 19.4832C5.51984 18.4943 4.36629 17.0887 3.6851 15.4442C3.00391 13.7996 2.82568 11.99 3.17295 10.2442C3.52021 8.49836 4.37738 6.89471 5.63605 5.63604C6.89472 4.37737 8.49837 3.5202 10.2442 3.17293C11.99 2.82567 13.7996 3.0039 15.4442 3.68508C17.0887 4.36627 18.4943 5.51983 19.4832 6.99987C20.4722 8.47991 21 10.22 21 12C20.9974 14.3861 20.0483 16.6738 18.3611 18.361C16.6738 20.0483 14.3861 20.9974 12 21V21ZM17 12C17 12.3978 16.842 12.7794 16.5607 13.0607C16.2794 13.342 15.8978 13.5 15.5 13.5H13.5V15.5C13.5 15.8978 13.342 16.2794 13.0607 16.5607C12.7794 16.842 12.3978 17 12 17C11.6022 17 11.2207 16.842 10.9394 16.5607C10.658 16.2794 10.5 15.8978 10.5 15.5V13.5H8.50001C8.10219 13.5 7.72066 13.342 7.43935 13.0607C7.15805 12.7794 7.00001 12.3978 7.00001 12C7.00001 11.6022 7.15805 11.2206 7.43935 10.9393C7.72066 10.658 8.10219 10.5 8.50001 10.5H10.5V8.5C10.5 8.10218 10.658 7.72065 10.9394 7.43934C11.2207 7.15804 11.6022 7 12 7C12.3978 7 12.7794 7.15804 13.0607 7.43934C13.342 7.72065 13.5 8.10218 13.5 8.5V10.5H15.5C15.8978 10.5 16.2794 10.658 16.5607 10.9393C16.842 11.2206 17 11.6022 17 12V12Z" fill="#EBEBEB"/>
</svg>
