<svg width="11" height="20" viewBox="0 0 11 20" fill="none" xmlns="http://www.w3.org/2000/svg">
<path d="M1.37764 13.2999L7.55232 19.4145C7.9312 19.7895 8.44499 20.0001 8.98067 20C9.51636 19.9999 10.0301 19.789 10.4088 19.4138C10.7874 19.0387 11.0001 18.5299 11 17.9994C10.9999 17.4689 10.787 16.9602 10.4081 16.5852L4.23339 10.472C4.1707 10.4101 4.12096 10.3365 4.08702 10.2555C4.05308 10.1745 4.03561 10.0877 4.03561 10C4.03561 9.91231 4.05308 9.82549 4.08702 9.74449C4.12096 9.6635 4.1707 9.58993 4.23339 9.52801L10.4081 3.41478C10.787 3.03977 10.9999 2.53108 11 2.00061C11.0001 1.47014 10.7874 0.961348 10.4088 0.586161C10.0301 0.210975 9.51636 0.00012467 8.98067 -3.51871e-07C8.44499 -0.000125374 7.9312 0.210483 7.55232 0.585492L1.37764 6.70006C0.49542 7.57609 -2.35447e-07 8.7628 -2.35447e-07 10C-2.35447e-07 11.2372 0.49542 12.4239 1.37764 13.2999V13.2999Z" fill="#EBEBEB"/>
</svg>
