<svg width="19" height="24" viewBox="0 0 19 24" fill="none" xmlns="http://www.w3.org/2000/svg">
<path d="M14.9539 10.663C15.6096 9.60386 15.9701 8.38865 15.9982 7.1433C16.0262 5.89795 15.7208 4.66775 15.1135 3.58014C14.5062 2.49254 13.6191 1.5871 12.5442 0.957619C11.4693 0.328139 10.2456 -0.00247986 8.99994 1.40046e-05H1.99994C1.46951 1.40046e-05 0.960798 0.210728 0.585725 0.5858C0.210653 0.960873 -6.10352e-05 1.46958 -6.10352e-05 2.00001V22C-6.10352e-05 22.5304 0.210653 23.0392 0.585725 23.4142C0.960798 23.7893 1.46951 24 1.99994 24H11.9999C13.5934 24.0017 15.1396 23.4592 16.3827 22.4624C17.6258 21.4656 18.4913 20.0742 18.8359 18.5185C19.1804 16.9627 18.9835 15.336 18.2775 13.9075C17.5716 12.479 16.399 11.3343 14.9539 10.663V10.663ZM3.99994 4.00001H8.99994C9.79559 4.00001 10.5587 4.31608 11.1213 4.87869C11.6839 5.4413 11.9999 6.20436 11.9999 7.00001C11.9999 7.79566 11.6839 8.55873 11.1213 9.12134C10.5587 9.68394 9.79559 10 8.99994 10H3.99994V4.00001ZM11.9999 20H3.99994V14H11.9999C12.7956 14 13.5587 14.3161 14.1213 14.8787C14.6839 15.4413 14.9999 16.2044 14.9999 17C14.9999 17.7957 14.6839 18.5587 14.1213 19.1213C13.5587 19.6839 12.7956 20 11.9999 20V20Z" fill="#EBEBEB"/>
</svg>
