<svg width="24" height="23" viewBox="0 0 24 23" fill="none" xmlns="http://www.w3.org/2000/svg">
<path d="M23.5604 0.439046C22.9748 -0.146349 22.0256 -0.146349 21.44 0.439046L16.6774 5.20168C14.7599 3.47867 11.9038 3.31625 9.80338 4.81081C8.56703 5.73103 7.19774 6.45747 5.74255 6.96517L3.95408 7.48904C1.03986 8.34271 -0.630522 11.3972 0.223201 14.3115C0.288104 14.533 0.366878 14.7502 0.459102 14.9619C1.54704 17.6592 3.54174 19.8925 6.09949 21.2771C8.11613 22.2238 10.3255 22.6879 12.5526 22.6327H12.6156C13.3663 22.6329 14.0966 22.3894 14.697 21.9389C17.8463 19.6771 19.9992 16.2851 20.7052 12.4726C21.0182 10.676 20.4285 8.8402 19.1277 7.562L18.8398 7.2821L23.5634 2.55747C24.1466 1.97128 24.1453 1.02355 23.5604 0.439046ZM12.8835 19.5486C12.8012 19.6074 12.7017 19.6373 12.6006 19.6335C11.5501 19.6332 10.5024 19.5264 9.47347 19.3146C10.812 18.4773 11.9647 17.3746 12.8605 16.0746L13.3544 15.3478C13.8338 14.6725 13.6751 13.7364 12.9998 13.2569C12.3245 12.7775 11.3884 12.9362 10.9089 13.6115C10.8973 13.6279 10.886 13.6444 10.8751 13.6613L10.3812 14.3861C9.56256 15.5822 8.454 16.5511 7.15912 17.2023L6.12142 17.7231C5.53875 17.2502 5.01694 16.7069 4.56787 16.1056C5.95469 15.5399 7.21915 14.7117 8.29181 13.6663C8.87486 13.0782 8.87069 12.1287 8.28253 11.5457C7.70618 10.9744 6.77997 10.9652 6.19242 11.5249C5.31297 12.3785 4.26154 13.0346 3.10832 13.4494C2.72139 12.1365 3.47206 10.7585 4.78493 10.3716C4.7899 10.3702 4.79487 10.3687 4.79983 10.3673L6.58633 9.84242C8.12133 9.33084 9.57629 8.60486 10.9081 7.68604L17.2342 13.8512C16.3694 16.1333 14.8573 18.1133 12.8835 19.5486Z" fill="#EBEBEB"/>
</svg>
