<svg width="25" height="24" viewBox="0 0 25 24" fill="none" xmlns="http://www.w3.org/2000/svg">
<path d="M12.4374 0.00797708C15.3509 0.139475 18.12 1.31461 20.2381 3.3195C22.3563 5.32459 23.6825 8.02576 23.9735 10.9279C24.1367 12.7346 23.8845 14.5546 23.2372 16.2492C23.0988 16.6162 22.8703 16.9434 22.5731 17.1994C22.276 17.4551 21.9193 17.6327 21.536 17.715C21.1464 17.7997 20.7418 17.7845 20.3592 17.672C19.9766 17.5595 19.6284 17.3527 19.3465 17.0705L19.246 16.9709C18.8446 16.5697 18.3331 16.2971 17.7762 16.1877C17.2194 16.0783 16.6423 16.1371 16.119 16.3566C15.5958 16.5761 15.1499 16.9463 14.8377 17.4201C14.5256 17.894 14.3611 18.4503 14.3661 19.0177L14.3963 22.4425C14.3997 22.8211 14.2599 23.1873 14.0047 23.467C13.7496 23.7466 13.3976 23.919 13.0204 23.9504C12.6894 23.9774 12.3583 23.9992 12.0204 23.9992C10.4254 24.0019 8.84563 23.6873 7.37388 23.0724C5.90203 22.4575 4.56717 21.5549 3.4481 20.4181C2.32907 19.2814 1.4481 17.9326 0.856304 16.4513C0.264575 14.9701 -0.0259023 13.386 0.00181181 11.7912C0.0295312 10.1964 0.374567 8.62303 1.01744 7.16325C1.66036 5.70344 2.58808 4.38638 3.74595 3.28923C4.90385 2.19207 6.26925 1.33702 7.76158 0.773602C9.25384 0.210247 10.8434 -0.0501922 12.4374 0.00797708ZM12.0194 2.99919C9.68866 3.00074 7.44878 3.90734 5.77232 5.52653C4.09618 7.14565 3.11367 9.35183 3.03111 11.6808C2.94857 14.0101 3.77228 16.281 5.32994 18.0148C6.88759 19.7486 9.05791 20.8102 11.3827 20.9767L11.3651 19.0441C11.3559 17.9535 11.651 16.8813 12.2176 15.9494C12.7843 15.0175 13.6005 14.2623 14.5731 13.7687C15.5457 13.2751 16.6368 13.0627 17.7235 13.1554C18.8102 13.2482 19.8496 13.6429 20.7245 14.2941C20.9918 13.2829 21.0799 12.2322 20.9852 11.1906C20.7665 9.01533 19.7722 6.99125 18.1844 5.48845C16.5966 3.98573 14.5207 3.10479 12.3368 3.00602C12.231 3.00005 12.1192 2.99919 12.0194 2.99919ZM7.93736 13.0002C9.04171 13.0002 9.9371 13.8949 9.93736 14.9992C9.93736 16.1037 9.04187 16.9991 7.93736 16.9992C6.83279 16.9992 5.93736 16.1038 5.93736 14.9992C5.93762 13.8948 6.83295 13.0002 7.93736 13.0002ZM8.93736 5.99919C10.0418 5.99919 10.9372 6.89473 10.9374 7.99919C10.9374 9.10375 10.0419 9.99919 8.93736 9.99919C7.83279 9.99919 6.93736 9.10376 6.93736 7.99919C6.93749 6.89473 7.83287 5.99919 8.93736 5.99919ZM15.9374 5.99919C17.0417 5.99932 17.9372 6.89481 17.9374 7.99919C17.9374 9.10367 17.0418 9.99905 15.9374 9.99919C14.8328 9.99919 13.9374 9.10376 13.9374 7.99919C13.9375 6.89473 14.8329 5.99919 15.9374 5.99919Z" fill="#EBEBEB"/>
</svg>
