<svg width="21" height="24" viewBox="0 0 21 24" fill="none" xmlns="http://www.w3.org/2000/svg">
<path d="M10.1151 0C10.513 0 10.8944 0.158152 11.1757 0.439453C11.457 0.720758 11.6151 1.10218 11.6151 1.5V2.125C13.8101 2.45764 15.8314 3.51343 17.3583 5.125L17.873 4.7666C18.1992 4.53931 18.6026 4.45163 18.9941 4.52148C19.3855 4.59141 19.7334 4.81355 19.9609 5.13965C20.1882 5.46601 20.2769 5.87016 20.2069 6.26172C20.1369 6.65308 19.914 7.00018 19.5878 7.22754L19.0741 7.58496C19.7573 8.95653 20.1136 10.4677 20.1151 12C20.1136 13.5323 19.7573 15.0435 19.0741 16.415L19.5878 16.7725C19.914 16.9998 20.1369 17.3469 20.2069 17.7383C20.2769 18.1298 20.1882 18.534 19.9609 18.8604C19.7334 19.1865 19.3855 19.4086 18.9941 19.4785C18.6026 19.5484 18.1992 19.4607 17.873 19.2334L17.3583 18.875C15.8314 20.4866 13.8101 21.5424 11.6151 21.875V22.5C11.6151 22.8978 11.457 23.2792 11.1757 23.5605C10.8944 23.8418 10.513 24 10.1151 24C9.71733 24 9.3359 23.8418 9.0546 23.5605C8.7733 23.2792 8.61515 22.8978 8.61515 22.5V21.875C6.42018 21.5424 4.39887 20.4866 2.87199 18.875L2.35734 19.2334C2.03105 19.4607 1.6277 19.5484 1.23624 19.4785C0.844831 19.4086 0.496907 19.1865 0.269447 18.8604C0.0420731 18.534 -0.0465955 18.1298 0.0233529 17.7383C0.0933965 17.3469 0.316318 16.9998 0.642494 16.7725L1.15617 16.415C0.47157 15.044 0.11515 13.5325 0.11515 12C0.11515 10.4675 0.47157 8.95602 1.15617 7.58496L0.642494 7.22754C0.316318 7.00018 0.0933966 6.65309 0.0233529 6.26172C-0.0465955 5.87016 0.0420731 5.46601 0.269447 5.13965C0.496907 4.81354 0.844831 4.59141 1.23624 4.52148C1.6277 4.45162 2.03105 4.53931 2.35734 4.7666L2.87199 5.125C4.39887 3.51343 6.42018 2.45764 8.61515 2.125V1.5C8.61515 1.10218 8.7733 0.720757 9.0546 0.439453C9.3359 0.158151 9.71733 3.09751e-06 10.1151 0ZM12.7939 5.5332C11.5149 5.00343 10.1077 4.86475 8.74992 5.13477C7.39205 5.40486 6.14392 6.07084 5.16495 7.0498C4.18599 8.02877 3.52001 9.2769 3.24992 10.6348C2.97991 11.9925 3.11858 13.3997 3.64835 14.6787C4.17817 15.9578 5.07535 17.0512 6.22648 17.8203C7.37757 18.5894 8.73077 19 10.1151 19C11.9709 18.9976 13.7502 18.2595 15.0624 16.9473C16.3747 15.635 17.1128 13.8558 17.1151 12C17.1151 10.6156 16.7045 9.26242 15.9355 8.11133C15.1663 6.9602 14.0729 6.06302 12.7939 5.5332ZM10.1151 7.6377C11.2717 7.63912 12.3803 8.09924 13.1982 8.91699C14.0161 9.73493 14.4761 10.8442 14.4775 12.001C14.4774 12.8638 14.2215 13.7074 13.7421 14.4248C13.2627 15.1422 12.5812 15.7011 11.7841 16.0312C10.9869 16.3614 10.1098 16.4486 9.26359 16.2803C8.41725 16.1119 7.63939 15.6961 7.02921 15.0859C6.41912 14.4758 6.00419 13.6978 5.83585 12.8516C5.66757 12.0053 5.75371 11.1282 6.0839 10.3311C6.41407 9.53395 6.97302 8.85245 7.69035 8.37305C8.40784 7.89363 9.25223 7.6377 10.1151 7.6377ZM9.84855 10.6641C9.5843 10.7167 9.34182 10.8466 9.15128 11.0371C8.96077 11.2276 8.83089 11.4702 8.77824 11.7344C8.72564 11.9988 8.75222 12.2734 8.85538 12.5225C8.95852 12.7714 9.13332 12.984 9.35734 13.1338C9.58148 13.2836 9.84557 13.3633 10.1151 13.3633C10.4764 13.3629 10.8226 13.2193 11.078 12.9639C11.3335 12.7084 11.4771 12.3623 11.4775 12.001C11.4775 11.7314 11.3977 11.4673 11.248 11.2432C11.0982 11.0192 10.8855 10.8443 10.6366 10.7412C10.3876 10.638 10.1129 10.6115 9.84855 10.6641Z" fill="#EBEBEB"/>
</svg>
