<svg width="23" height="20" viewBox="0 0 23 20" fill="none" xmlns="http://www.w3.org/2000/svg">
<path d="M21.4287 17.1426C21.8075 17.1426 22.1706 17.2936 22.4385 17.5615C22.7063 17.8294 22.8574 18.1925 22.8574 18.5713C22.8574 18.9502 22.7064 19.3141 22.4385 19.582C22.1706 19.8497 21.8074 20 21.4287 20H1.42871C1.04984 20 0.685877 19.8499 0.417969 19.582C0.15006 19.3141 0 18.9502 0 18.5713C2.88787e-05 18.1926 0.150314 17.8294 0.417969 17.5615C0.685878 17.2936 1.04983 17.1426 1.42871 17.1426H21.4287ZM21.4287 11.4287C21.8074 11.4287 22.1706 11.579 22.4385 11.8467C22.7064 12.1146 22.8574 12.4785 22.8574 12.8574C22.8574 13.2363 22.7064 13.5993 22.4385 13.8672C22.1706 14.1351 21.8075 14.2861 21.4287 14.2861H1.42871C1.04983 14.2861 0.685878 14.1351 0.417969 13.8672C0.150312 13.5993 3.57411e-05 13.2361 0 12.8574C0 12.4785 0.15006 12.1146 0.417969 11.8467C0.685878 11.5788 1.04983 11.4287 1.42871 11.4287H21.4287ZM21.4287 5.71387C21.8075 5.7139 22.1706 5.86494 22.4385 6.13281C22.7063 6.4007 22.8574 6.76374 22.8574 7.14258C22.8574 7.52146 22.7064 7.88541 22.4385 8.15332C22.1706 8.42097 21.8074 8.57125 21.4287 8.57129H1.42871C1.04984 8.57129 0.685877 8.42122 0.417969 8.15332C0.15006 7.88541 0 7.52146 0 7.14258C2.88787e-05 6.76391 0.150314 6.40066 0.417969 6.13281C0.685878 5.8649 1.04983 5.71387 1.42871 5.71387H21.4287ZM21.4287 0C21.8074 3.69088e-05 22.1706 0.15031 22.4385 0.417969C22.7064 0.685879 22.8574 1.04983 22.8574 1.42871C22.8574 1.80754 22.7064 2.1706 22.4385 2.43848C22.1706 2.70635 21.8075 2.85738 21.4287 2.85742H1.42871C1.04983 2.85742 0.685878 2.70639 0.417969 2.43848C0.150312 2.17063 3.57411e-05 1.80738 0 1.42871C0 1.04983 0.15006 0.685879 0.417969 0.417969C0.685878 0.150059 1.04983 0 1.42871 0H21.4287Z" fill="white"/>
</svg>
