<svg width="24" height="24" viewBox="0 0 24 24" fill="none" xmlns="http://www.w3.org/2000/svg">
<path d="M12.0001 0C15.1816 0.00344105 18.2318 1.2689 20.4815 3.51855C22.7312 5.76825 23.9966 8.81846 24.0001 12C24.0001 14.3734 23.2962 16.6936 21.9776 18.667C20.6591 20.6402 18.7854 22.1787 16.5929 23.0869C14.4002 23.9951 11.987 24.2325 9.65926 23.7695C7.33149 23.3065 5.19296 22.1636 3.51473 20.4854C1.83653 18.8071 0.693564 16.6686 0.230548 14.3408C-0.232359 12.0133 0.00512881 9.60068 0.913165 7.4082C1.82138 5.21558 3.35981 3.34103 5.33309 2.02246C7.30644 0.703908 9.62675 2.52628e-05 12.0001 0ZM15.4444 3.68555C13.7999 3.00436 11.99 2.82558 10.2442 3.17285C8.49845 3.52014 6.89446 4.37711 5.63582 5.63574C4.37718 6.8944 3.52019 8.49834 3.17293 10.2441C2.82566 11.99 3.00444 13.7998 3.68563 15.4443C4.36683 17.0888 5.52012 18.4945 7.00008 19.4834C8.48007 20.4723 10.2201 21 12.0001 21C14.3861 20.9971 16.6742 20.0475 18.3614 18.3604C20.0483 16.6732 20.9972 14.3859 21.0001 12C21.0001 10.22 20.4724 8.48002 19.4835 7C18.4946 5.52002 17.0889 4.36675 15.4444 3.68555ZM11.545 9.54492C12.1961 9.54492 12.8209 9.80425 13.2813 10.2646C13.7416 10.7249 14 11.3491 14.0001 12V17.1826C14 17.5804 13.8419 17.9619 13.5606 18.2432C13.2793 18.5243 12.8978 18.6826 12.5001 18.6826C12.1024 18.6825 11.7208 18.5244 11.4395 18.2432C11.1583 17.9619 11.0001 17.5803 11.0001 17.1826V12.5322C10.6105 12.4965 10.2502 12.3102 9.99617 12.0127C9.74208 11.7149 9.61456 11.3291 9.6407 10.9385C9.68646 10.548 9.87602 10.1884 10.1729 9.93066C10.4698 9.67307 10.8523 9.53533 11.2452 9.54492H11.545ZM11.1739 5.16504C11.4874 5.03523 11.8323 5.00119 12.1651 5.06738C12.498 5.1336 12.804 5.29712 13.044 5.53711C13.2839 5.77707 13.4476 6.08323 13.5138 6.41602C13.5798 6.74875 13.5459 7.09381 13.4161 7.40723C13.2862 7.72078 13.0655 7.9882 12.7833 8.17676C12.5011 8.36528 12.1695 8.4668 11.8302 8.4668C11.6049 8.4669 11.382 8.42202 11.1739 8.33594C10.9657 8.24975 10.7757 8.12324 10.6163 7.96387C10.4571 7.80456 10.3304 7.61535 10.2442 7.40723C10.1581 7.19903 10.1142 6.97531 10.1143 6.75C10.1144 6.41076 10.2149 6.07895 10.4034 5.79688C10.592 5.51471 10.8604 5.29491 11.1739 5.16504Z" fill="#EBEBEB"/>
</svg>
