<svg width="21" height="24" viewBox="0 0 21 24" fill="none" xmlns="http://www.w3.org/2000/svg">
<path d="M10.5 0C13.2837 0.00344012 15.9525 1.11071 17.9209 3.0791C19.8893 5.04749 20.9966 7.71628 21 10.5C21 13.327 18.7999 17.267 14.4609 22.209C13.9659 22.7715 13.3566 23.2226 12.6738 23.5312C11.9911 23.8399 11.2502 23.999 10.501 23.999C9.75171 23.999 9.01088 23.8399 8.32812 23.5312C7.64531 23.2226 7.03606 22.7715 6.54102 22.209C2.20002 17.266 0 13.326 0 10.5C0.00344012 7.71628 1.11071 5.04749 3.0791 3.0791C5.04749 1.11071 7.71628 0.00344012 10.5 0ZM10.4941 3.00098C8.50506 3.00098 6.59694 3.79079 5.19043 5.19727C3.78391 6.60378 2.99415 8.51186 2.99414 10.501C2.99414 12.489 5.11095 16.0364 8.79395 20.2314C9.01191 20.4657 9.27598 20.6525 9.56934 20.7803C9.86286 20.9081 10.1798 20.9736 10.5 20.9736C10.8202 20.9736 11.1371 20.9081 11.4307 20.7803C11.724 20.6525 11.9881 20.4657 12.2061 20.2314C15.8891 16.0364 18.0001 12.489 17.9941 10.501C17.9941 8.51186 17.2034 6.60378 15.7969 5.19727C14.3904 3.79104 12.483 3.00101 10.4941 3.00098ZM10.5 6.05566C11.6567 6.057 12.7661 6.51703 13.584 7.33496C14.4016 8.15276 14.8618 9.26153 14.8633 10.418C14.8633 11.2809 14.6073 12.1253 14.1279 12.8428C13.6486 13.5601 12.967 14.119 12.1699 14.4492C11.3727 14.7794 10.4948 14.8656 9.64844 14.6973C8.80238 14.5289 8.02508 14.1138 7.41504 13.5039C6.80486 12.8937 6.38905 12.1159 6.2207 11.2695C6.0524 10.4233 6.13865 9.54614 6.46875 8.74902C6.79897 7.9518 7.35869 7.27043 8.07617 6.79102C8.79366 6.3116 9.63708 6.05566 10.5 6.05566ZM10.2344 9.08203C9.96998 9.13462 9.72675 9.26446 9.53613 9.45508C9.34568 9.64562 9.21567 9.88812 9.16309 10.1523C9.11049 10.4167 9.13707 10.6914 9.24023 10.9404C9.34341 11.1894 9.51907 11.402 9.74316 11.5518C9.96724 11.7014 10.2306 11.7812 10.5 11.7812C10.8614 11.781 11.2083 11.6374 11.4639 11.3818C11.7193 11.1263 11.863 10.7793 11.8633 10.418C11.8632 10.1486 11.7825 9.88515 11.6328 9.66113C11.4831 9.4371 11.2705 9.26231 11.0215 9.15918C10.7725 9.05607 10.4987 9.0295 10.2344 9.08203Z" fill="#EBEBEB"/>
</svg>
