<svg width="17" height="24" viewBox="0 0 17 24" fill="none" xmlns="http://www.w3.org/2000/svg">
<path d="M14.5079 9.5C14.9058 9.5 15.2873 9.34196 15.5686 9.06066C15.8499 8.77936 16.0079 8.39782 16.0079 8V7.313C16.0061 5.90447 15.4457 4.55417 14.4497 3.55819C13.4538 2.56221 12.1035 2.00185 10.6949 2H9.50793V1.5C9.50793 1.10218 9.3499 0.720644 9.06859 0.43934C8.78729 0.158035 8.40576 0 8.00793 0C7.61011 0 7.22857 0.158035 6.94727 0.43934C6.66597 0.720644 6.50793 1.10218 6.50793 1.5V2H5.32093C4.04541 1.9981 2.81177 2.45514 1.84538 3.28764C0.878992 4.12013 0.24435 5.27251 0.0573936 6.53425C-0.129563 7.796 0.143644 9.0829 0.827106 10.1599C1.51057 11.2368 2.55866 12.0319 3.77993 12.4L6.50793 13.146V19H5.32093C4.70773 18.9992 4.11987 18.7553 3.68627 18.3217C3.25267 17.8881 3.00872 17.3002 3.00793 16.687V16C3.00793 15.6022 2.8499 15.2206 2.56859 14.9393C2.28729 14.658 1.90576 14.5 1.50793 14.5C1.11011 14.5 0.728575 14.658 0.44727 14.9393C0.165966 15.2206 0.00793077 15.6022 0.00793076 16V16.687C0.00978287 18.0955 0.570139 19.4458 1.56612 20.4418C2.5621 21.4378 3.9124 21.9981 5.32093 22H6.50793V22.5C6.50793 22.8978 6.66597 23.2794 6.94727 23.5607C7.22857 23.842 7.61011 24 8.00793 24C8.40576 24 8.78729 23.842 9.06859 23.5607C9.3499 23.2794 9.50793 22.8978 9.50793 22.5V22H10.6949C11.9705 22.0019 13.2041 21.5449 14.1705 20.7124C15.1369 19.8799 15.7715 18.7275 15.9585 17.4657C16.1454 16.204 15.8722 14.9171 15.1888 13.8401C14.5053 12.7632 13.4572 11.9681 12.2359 11.6L9.50793 10.856V5H10.6949C11.3081 5.00079 11.896 5.24474 12.3296 5.67834C12.7632 6.11194 13.0071 6.6998 13.0079 7.313V8C13.0079 8.39782 13.166 8.77936 13.4473 9.06066C13.7286 9.34196 14.1101 9.5 14.5079 9.5ZM11.3899 14.479C11.9175 14.6452 12.368 14.995 12.6599 15.4648C12.9518 15.9346 13.0658 16.4935 12.9812 17.0401C12.8965 17.5867 12.6189 18.0849 12.1986 18.4444C11.7783 18.804 11.2431 19.0011 10.6899 19H9.50793V13.965L11.3899 14.479ZM6.50793 10.035L4.62593 9.521C4.0988 9.35488 3.64853 9.00557 3.3566 8.53627C3.06466 8.06697 2.95034 7.50868 3.03432 6.96241C3.11829 6.41613 3.39502 5.91796 3.81443 5.55801C4.23385 5.19807 4.76824 5.00012 5.32093 5H6.50793V10.035Z" fill="#EBEBEB"/>
</svg>
