<svg width="22" height="24" viewBox="0 0 22 24" fill="none" xmlns="http://www.w3.org/2000/svg">
<path d="M16.5 0H7.5C6.48727 0.00110132 5.49452 0.281796 4.63115 0.811144C3.76778 1.34049 3.06733 2.09794 2.607 3H1.5C1.10218 3 0.720644 3.15804 0.43934 3.43934C0.158035 3.72064 0 4.10218 0 4.5C0 4.89782 0.158035 5.27936 0.43934 5.56066C0.720644 5.84196 1.10218 6 1.5 6H2V8H1.5C1.10218 8 0.720644 8.15804 0.43934 8.43934C0.158035 8.72064 0 9.10218 0 9.5C0 9.89782 0.158035 10.2794 0.43934 10.5607C0.720644 10.842 1.10218 11 1.5 11H2V13H1.5C1.10218 13 0.720644 13.158 0.43934 13.4393C0.158035 13.7206 0 14.1022 0 14.5C0 14.8978 0.158035 15.2794 0.43934 15.5607C0.720644 15.842 1.10218 16 1.5 16H2V18H1.5C1.10218 18 0.720644 18.158 0.43934 18.4393C0.158035 18.7206 0 19.1022 0 19.5C0 19.8978 0.158035 20.2794 0.43934 20.5607C0.720644 20.842 1.10218 21 1.5 21H2.607C3.06733 21.9021 3.76778 22.6595 4.63115 23.1889C5.49452 23.7182 6.48727 23.9989 7.5 24H16.5C17.9582 23.9984 19.3562 23.4184 20.3873 22.3873C21.4184 21.3562 21.9984 19.9582 22 18.5V5.5C21.9984 4.0418 21.4184 2.64377 20.3873 1.61267C19.3562 0.581561 17.9582 0.00158817 16.5 0V0ZM19 18.5C19 19.163 18.7366 19.7989 18.2678 20.2678C17.7989 20.7366 17.163 21 16.5 21H7.5C6.83696 21 6.20107 20.7366 5.73223 20.2678C5.26339 19.7989 5 19.163 5 18.5V5.5C5 4.83696 5.26339 4.20107 5.73223 3.73223C6.20107 3.26339 6.83696 3 7.5 3H16.5C17.163 3 17.7989 3.26339 18.2678 3.73223C18.7366 4.20107 19 4.83696 19 5.5V18.5ZM9.5 9.5C9.5 8.83696 9.76339 8.20107 10.2322 7.73223C10.7011 7.26339 11.337 7 12 7C12.663 7 13.2989 7.26339 13.7678 7.73223C14.2366 8.20107 14.5 8.83696 14.5 9.5C14.5 10.163 14.2366 10.7989 13.7678 11.2678C13.2989 11.7366 12.663 12 12 12C11.337 12 10.7011 11.7366 10.2322 11.2678C9.76339 10.7989 9.5 10.163 9.5 9.5ZM15.988 16.232C16.0031 16.3282 15.9969 16.4266 15.9698 16.5202C15.9427 16.6137 15.8954 16.7002 15.8312 16.7735C15.767 16.8467 15.6875 16.905 15.5983 16.9441C15.5091 16.9833 15.4124 17.0024 15.315 17H8.654C8.55662 17.0024 8.45991 16.9833 8.37071 16.9441C8.28151 16.905 8.202 16.8467 8.1378 16.7735C8.07361 16.7002 8.02629 16.6137 7.99919 16.5202C7.97209 16.4266 7.96588 16.3282 7.981 16.232C8.842 11.965 15.128 11.968 15.988 16.232Z" fill="#EBEBEB"/>
</svg>
