<svg width="16" height="24" viewBox="0 0 16 24" fill="none" xmlns="http://www.w3.org/2000/svg">
<path d="M7.98315 14.001C12.4064 13.9961 15.9959 17.5777 16.0007 22.001V22.501C16.0006 23.3293 15.3291 24.001 14.5007 24.001C13.6726 24.0007 13.0009 23.3291 13.0007 22.501V22.001C13.0006 21.8377 12.9924 21.6742 12.9763 21.5117C12.7035 18.7605 10.252 16.7506 7.50073 17.0234C4.89463 17.3562 2.95567 19.5967 3.00073 22.2236V22.501C3.00057 23.3293 2.32905 24.001 1.50073 24.001C0.67263 24.0007 0.000889945 23.3291 0.000728105 22.501V22.2842C-0.0558486 18.0056 3.1913 14.4039 7.45288 14.0186C7.62929 14.0067 7.80636 14.0012 7.98315 14.001ZM8.0017 0C11.3152 0.000241202 14.0017 2.68646 14.0017 6C14.0017 9.31354 11.3152 11.9998 8.0017 12C4.68938 11.9967 2.00499 9.31233 2.0017 6C2.0017 2.68631 4.68802 0 8.0017 0ZM8.0017 3C6.34486 3 5.0017 4.34316 5.0017 6C5.0017 7.65684 6.34486 9 8.0017 9C9.65834 8.99976 11.0017 7.6567 11.0017 6C11.0017 4.3433 9.65834 3.00024 8.0017 3Z" fill="#EBEBEB"/>
</svg>
