<svg width="24" height="12" viewBox="0 0 24 12" fill="none" xmlns="http://www.w3.org/2000/svg">
<path d="M16.0005 10.5007C16.0005 10.8985 15.8424 11.28 15.5611 11.5613C15.2798 11.8426 14.8983 12.0007 14.5005 12.0007H9.50048C9.10266 12.0007 8.72112 11.8426 8.43982 11.5613C8.15852 11.28 8.00048 10.8985 8.00048 10.5007C8.00048 10.1029 8.15852 9.72133 8.43982 9.44002C8.72112 9.15872 9.10266 9.00068 9.50048 9.00068H14.5005C14.8983 9.00068 15.2798 9.15872 15.5611 9.44002C15.8424 9.72133 16.0005 10.1029 16.0005 10.5007ZM8.93948 6.56168C9.07878 6.70107 9.24418 6.81165 9.42623 6.88709C9.60828 6.96253 9.80342 7.00136 10.0005 7.00136C10.1975 7.00136 10.3927 6.96253 10.5747 6.88709C10.7568 6.81165 10.9222 6.70107 11.0615 6.56168L12.0005 5.62168L12.9395 6.56168C13.2209 6.84308 13.6025 7.00116 14.0005 7.00116C14.3984 7.00116 14.7801 6.84308 15.0615 6.56168C15.3429 6.28029 15.501 5.89863 15.501 5.50068C15.501 5.10273 15.3429 4.72108 15.0615 4.43968L14.1215 3.50068L15.0615 2.56168C15.3429 2.28029 15.501 1.89863 15.501 1.50068C15.501 1.10273 15.3429 0.721075 15.0615 0.43968C14.7801 0.158285 14.3984 0.000199324 14.0005 0.000199318C13.6025 0.000199312 13.2209 0.158285 12.9395 0.43968L12.0005 1.37968L11.0615 0.43968C10.7801 0.158285 10.3984 0.000199315 10.0005 0.000199318C9.60253 0.000199321 9.22088 0.158285 8.93948 0.43968C8.65809 0.721075 8.5 1.10273 8.5 1.50068C8.5 1.89863 8.65809 2.28029 8.93948 2.56168L9.87948 3.50068L8.93948 4.43968C8.80009 4.57898 8.68952 4.74438 8.61407 4.92643C8.53863 5.10848 8.4998 5.30362 8.4998 5.50068C8.4998 5.69774 8.53863 5.89288 8.61407 6.07493C8.68952 6.25698 8.80009 6.42238 8.93948 6.56168V6.56168ZM5.50048 9.00068H1.50048C1.10266 9.00068 0.721125 9.15872 0.43982 9.44002C0.158516 9.72133 0.000480574 10.1029 0.000480574 10.5007C0.000480574 10.8985 0.158516 11.28 0.43982 11.5613C0.721125 11.8426 1.10266 12.0007 1.50048 12.0007H5.50048C5.89831 12.0007 6.27984 11.8426 6.56114 11.5613C6.84245 11.28 7.00048 10.8985 7.00048 10.5007C7.00048 10.1029 6.84245 9.72133 6.56114 9.44002C6.27984 9.15872 5.89831 9.00068 5.50048 9.00068ZM6.56148 0.43968C6.42218 0.30029 6.25678 0.189715 6.07473 0.114273C5.89268 0.0388309 5.69754 0 5.50048 0C5.30342 0 5.10828 0.0388309 4.92623 0.114273C4.74418 0.189715 4.57878 0.30029 4.43948 0.43968L3.50048 1.37968L2.56148 0.43968C2.28009 0.158285 1.89843 0.000199315 1.50048 0.000199318C1.10253 0.000199321 0.720875 0.158285 0.439481 0.43968C0.158086 0.721075 2.96497e-09 1.10273 0 1.50068C-2.96497e-09 1.89863 0.158086 2.28029 0.439481 2.56168L1.37948 3.50068L0.439481 4.43968C0.158086 4.72108 -2.96498e-09 5.10273 0 5.50068C2.96497e-09 5.89863 0.158086 6.28029 0.439481 6.56168C0.720875 6.84308 1.10253 7.00116 1.50048 7.00116C1.89843 7.00116 2.28009 6.84308 2.56148 6.56168L3.50048 5.62168L4.43948 6.56168C4.72088 6.84308 5.10253 7.00116 5.50048 7.00116C5.89843 7.00116 6.28009 6.84308 6.56148 6.56168C6.84288 6.28029 7.00096 5.89863 7.00096 5.50068C7.00096 5.10273 6.84288 4.72108 6.56148 4.43968L5.62148 3.50068L6.56148 2.56168C6.70087 2.42238 6.81145 2.25698 6.88689 2.07493C6.96233 1.89288 7.00116 1.69774 7.00116 1.50068C7.00116 1.30362 6.96233 1.10848 6.88689 0.926433C6.81145 0.744382 6.70087 0.578981 6.56148 0.43968ZM22.5005 9.00068H18.5005C18.1027 9.00068 17.7211 9.15872 17.4398 9.44002C17.1585 9.72133 17.0005 10.1029 17.0005 10.5007C17.0005 10.8985 17.1585 11.28 17.4398 11.5613C17.7211 11.8426 18.1027 12.0007 18.5005 12.0007H22.5005C22.8983 12.0007 23.2798 11.8426 23.5611 11.5613C23.8424 11.28 24.0005 10.8985 24.0005 10.5007C24.0005 10.1029 23.8424 9.72133 23.5611 9.44002C23.2798 9.15872 22.8983 9.00068 22.5005 9.00068ZM22.6215 3.50068L23.5615 2.56168C23.7008 2.42235 23.8113 2.25694 23.8867 2.07489C23.9621 1.89284 24.001 1.69773 24.001 1.50068C24.001 1.30363 23.9621 1.10852 23.8867 0.926471C23.8113 0.744424 23.7008 0.579013 23.5615 0.43968C23.4221 0.300348 23.2567 0.189823 23.0747 0.114417C22.8926 0.0390104 22.6975 0.000199318 22.5005 0.000199318C22.3034 0.000199318 22.1083 0.0390104 21.9263 0.114417C21.7442 0.189823 21.5788 0.300348 21.4395 0.43968L20.5005 1.37968L19.5615 0.43968C19.4221 0.300348 19.2567 0.189823 19.0747 0.114417C18.8926 0.0390104 18.6975 0.000199318 18.5005 0.000199318C18.1025 0.000199318 17.7209 0.158285 17.4395 0.43968C17.3001 0.579013 17.1896 0.744424 17.1142 0.926471C17.0388 1.10852 17 1.30363 17 1.50068C17 1.89863 17.1581 2.28029 17.4395 2.56168L18.3795 3.50068L17.4395 4.43968C17.1581 4.72108 17 5.10273 17 5.50068C17 5.89863 17.1581 6.28029 17.4395 6.56168C17.7209 6.84308 18.1025 7.00116 18.5005 7.00116C18.8984 7.00116 19.2801 6.84308 19.5615 6.56168L20.5005 5.62168L21.4395 6.56168C21.7209 6.84308 22.1025 7.00116 22.5005 7.00116C22.8984 7.00116 23.2801 6.84308 23.5615 6.56168C23.8429 6.28029 24.001 5.89863 24.001 5.50068C24.001 5.10273 23.8429 4.72108 23.5615 4.43968L22.6215 3.50068Z" fill="#EBEBEB"/>
</svg>
