<svg width="24" height="24" viewBox="0 0 24 24" fill="none" xmlns="http://www.w3.org/2000/svg">
<path d="M21.5658 4.40001C21.3517 3.16689 20.7088 2.04909 19.7506 1.24399C18.7923 0.438897 17.5804 -0.00170027 16.3288 6.39834e-06H7.65584C6.40411 -0.00193627 5.19196 0.438554 4.23351 1.24367C3.27505 2.04878 2.63197 3.16672 2.41784 4.40001L0.079844 17.765C-0.05414 18.5294 -0.0191807 19.3138 0.182267 20.0632C0.383715 20.8127 0.746769 21.5089 1.24594 22.1031C1.7451 22.6973 2.36829 23.175 3.07173 23.5027C3.77517 23.8304 4.54182 24.0001 5.31784 24H18.6798C19.4562 23.9999 20.223 23.8298 20.9266 23.5018C21.6302 23.1737 22.2535 22.6956 22.7527 22.1011C23.2519 21.5065 23.6148 20.8099 23.8161 20.0601C24.0174 19.3104 24.0521 18.5256 23.9178 17.761L21.5658 4.40001ZM20.4548 20.172C20.2376 20.4315 19.966 20.6401 19.6593 20.7832C19.3526 20.9262 19.0183 21.0002 18.6798 21H5.31784C4.97954 21.0001 4.64531 20.9262 4.33864 20.7834C4.03197 20.6405 3.76029 20.4323 3.5427 20.1732C3.32512 19.9142 3.16689 19.6106 3.07916 19.2839C2.99142 18.9572 2.97629 18.6152 3.03484 18.282L5.37284 4.91801C5.46621 4.38047 5.7465 3.89321 6.16423 3.54227C6.58196 3.19133 7.11026 2.99927 7.65584 3.00001H16.3288C16.8742 2.99906 17.4024 3.19095 17.82 3.54174C18.2375 3.89253 18.5177 4.37965 18.6108 4.91701L20.9628 18.28C21.0218 18.6133 21.0069 18.9555 20.9191 19.2825C20.8314 19.6094 20.6729 19.9131 20.4548 20.172V20.172ZM13.4988 5.50001V6.50001C13.4988 6.89783 13.3408 7.27936 13.0595 7.56067C12.7782 7.84197 12.3967 8.00001 11.9988 8.00001C11.601 8.00001 11.2195 7.84197 10.9382 7.56067C10.6569 7.27936 10.4988 6.89783 10.4988 6.50001V5.50001C10.4988 5.10218 10.6569 4.72065 10.9382 4.43935C11.2195 4.15804 11.601 4.00001 11.9988 4.00001C12.3967 4.00001 12.7782 4.15804 13.0595 4.43935C13.3408 4.72065 13.4988 5.10218 13.4988 5.50001V5.50001ZM13.4988 11.5V12.5C13.4988 12.8978 13.3408 13.2794 13.0595 13.5607C12.7782 13.842 12.3967 14 11.9988 14C11.601 14 11.2195 13.842 10.9382 13.5607C10.6569 13.2794 10.4988 12.8978 10.4988 12.5V11.5C10.4988 11.1022 10.6569 10.7207 10.9382 10.4393C11.2195 10.158 11.601 10 11.9988 10C12.3967 10 12.7782 10.158 13.0595 10.4393C13.3408 10.7207 13.4988 11.1022 13.4988 11.5ZM13.4988 17.5V18.5C13.4988 18.8978 13.3408 19.2794 13.0595 19.5607C12.7782 19.842 12.3967 20 11.9988 20C11.601 20 11.2195 19.842 10.9382 19.5607C10.6569 19.2794 10.4988 18.8978 10.4988 18.5V17.5C10.4988 17.1022 10.6569 16.7207 10.9382 16.4393C11.2195 16.158 11.601 16 11.9988 16C12.3967 16 12.7782 16.158 13.0595 16.4393C13.3408 16.7207 13.4988 17.1022 13.4988 17.5Z" fill="#EBEBEB"/>
</svg>
