<svg width="24" height="24" viewBox="0 0 24 24" fill="none" xmlns="http://www.w3.org/2000/svg">
<path d="M7 20.001C8.10453 20.001 9 20.8964 9 22.001C8.99987 23.1054 8.10445 24.0009 7 24.001C5.89552 24.001 5.00013 23.1054 5 22.001C5 20.8964 5.89543 20.001 7 20.001ZM17 20.001C18.1046 20.001 19 20.8964 19 22.001C18.9999 23.1054 18.1045 24.001 17 24.001C15.8955 24.001 15.0001 23.1054 15 22.001C15 20.8964 15.8954 20.001 17 20.001ZM2.08594 0C2.90031 0.00027117 3.68631 0.299437 4.29492 0.84082C4.90358 1.38234 5.29225 2.12917 5.3877 2.93848L5.65137 5H20.3535C21.3265 4.97882 22.2682 5.34472 22.9717 6.01758C23.4109 6.45458 23.7255 7.00144 23.8838 7.60059C24.042 8.19964 24.038 8.82981 23.8721 9.42676L22.627 13.958C22.3079 15.1189 21.617 16.1429 20.6602 16.873C19.7033 17.6032 18.5334 17.9992 17.3301 18H7.21289C6.39804 17.9998 5.61161 17.7002 5.00293 17.1582C4.39416 16.616 4.00569 15.8685 3.91113 15.0586L2.41211 3.2998C2.40444 3.21858 2.36655 3.14322 2.30664 3.08789C2.24648 3.0325 2.16769 3.00089 2.08594 3H1.49902C1.10153 2.99995 0.720555 2.84174 0.439453 2.56055C0.158297 2.27924 0 1.89782 0 1.5C0 1.10218 0.158297 0.720758 0.439453 0.439453C0.720555 0.158265 1.10153 4.91583e-05 1.49902 0H2.08594ZM6.03418 8L6.88867 14.7002C6.89592 14.7816 6.93317 14.8577 6.99316 14.9131C7.0531 14.9683 7.13142 14.9993 7.21289 15H17.3301C17.877 14.9987 18.4087 14.8189 18.8438 14.4873C19.2788 14.1557 19.5929 13.6903 19.7393 13.1631L20.9893 8.63184C21.0096 8.55741 21.012 8.47903 20.9971 8.40332C20.9822 8.3277 20.9503 8.25644 20.9033 8.19531C20.8563 8.13408 20.795 8.08465 20.7256 8.05078C20.6563 8.01701 20.58 7.99942 20.5029 8H6.03418Z" fill="#EBEBEB"/>
</svg>
