<svg width="24" height="24" viewBox="0 0 24 24" fill="none" xmlns="http://www.w3.org/2000/svg">
<path d="M17.4696 24C9.32062 24.229 -5.10538 9.787 1.83162 1.938C1.85662 1.914 2.92362 0.984 2.92362 0.984C3.59328 0.364944 4.4738 0.024539 5.38574 0.032157C6.29767 0.039775 7.17239 0.394843 7.83162 1.025L9.98362 3.343C10.6175 4.00548 10.9681 4.88905 10.9608 5.80592C10.9535 6.72279 10.589 7.60068 9.94462 8.253L9.55662 8.647C10.7121 11.2059 12.7566 13.2588 15.3106 14.425L15.7216 14.025C16.3882 13.3901 17.2735 13.036 18.1941 13.036C19.1147 13.036 20 13.3901 20.6666 14.025L22.9036 16.1C23.5662 16.7473 23.9466 17.63 23.9619 18.5561C23.9773 19.4823 23.6264 20.3771 22.9856 21.046C22.9856 21.046 22.0556 22.112 22.0316 22.137C21.4324 22.734 20.7205 23.2061 19.9374 23.5259C19.1543 23.8457 18.3155 24.0069 17.4696 24V24ZM3.91962 4.1C-0.939384 10.118 14.6136 24.773 19.8746 20.05C19.8746 20.05 20.7986 18.991 20.8236 18.967C20.9174 18.8732 20.97 18.7461 20.97 18.6135C20.97 18.4809 20.9174 18.3538 20.8236 18.26L18.5856 16.186C18.2856 15.936 18.1166 15.933 17.8386 16.146L16.7026 17.264C16.4977 17.4656 16.2392 17.604 15.9578 17.6629C15.6765 17.7218 15.3841 17.6985 15.1156 17.596C13.1202 16.8535 11.3078 15.6906 9.80124 14.1863C8.29466 12.6819 7.12911 10.8713 6.38362 8.877C6.27511 8.60629 6.24787 8.30982 6.30524 8.02388C6.36261 7.73793 6.50209 7.47491 6.70662 7.267L7.81462 6.141C7.86507 6.09618 7.90562 6.04132 7.93367 5.97993C7.96171 5.91854 7.97663 5.85197 7.97748 5.78449C7.97833 5.717 7.96508 5.65008 7.93859 5.58801C7.91209 5.52594 7.87293 5.47008 7.82362 5.424L5.66962 3.106C5.5743 3.02635 5.45216 2.98613 5.32817 2.99356C5.20419 3.001 5.08772 3.05553 5.00262 3.146C4.97862 3.171 3.91962 4.1 3.91962 4.1ZM23.9696 9.5C23.9667 6.98134 22.9649 4.56667 21.1839 2.7857C19.4029 1.00474 16.9883 0.00291129 14.4696 0C14.0718 0 13.6903 0.158035 13.409 0.43934C13.1277 0.720644 12.9696 1.10218 12.9696 1.5C12.9696 1.89782 13.1277 2.27936 13.409 2.56066C13.6903 2.84197 14.0718 3 14.4696 3C16.1929 3.00212 17.8449 3.68762 19.0635 4.90614C20.282 6.12467 20.9675 7.77674 20.9696 9.5C20.9696 9.89783 21.1277 10.2794 21.409 10.5607C21.6903 10.842 22.0718 11 22.4696 11C22.8674 11 23.249 10.842 23.5303 10.5607C23.8116 10.2794 23.9696 9.89783 23.9696 9.5ZM18.9696 9.5C18.9683 8.30693 18.4938 7.16311 17.6501 6.31948C16.8065 5.47586 15.6627 5.00132 14.4696 5C14.0718 5 13.6903 5.15804 13.409 5.43934C13.1277 5.72064 12.9696 6.10218 12.9696 6.5C12.9696 6.89783 13.1277 7.27936 13.409 7.56066C13.6903 7.84197 14.0718 8 14.4696 8C14.8674 8 15.249 8.15804 15.5303 8.43934C15.8116 8.72065 15.9696 9.10218 15.9696 9.5C15.9696 9.89783 16.1277 10.2794 16.409 10.5607C16.6903 10.842 17.0718 11 17.4696 11C17.8674 11 18.249 10.842 18.5303 10.5607C18.8116 10.2794 18.9696 9.89783 18.9696 9.5Z" fill="#EBEBEB"/>
</svg>
