<svg width="22" height="24" viewBox="0 0 22 24" fill="none" xmlns="http://www.w3.org/2000/svg">
<path d="M12.5 0C14.4006 0.00621494 16.0918 1.20746 16.7236 3H20.5C21.3283 3.00015 22 3.67167 22 4.5C22 5.32833 21.3283 5.99985 20.5 6H20V18.5C20 21.5374 17.5374 23.9998 14.5 24H7.5C4.46245 24 2 21.5375 2 18.5V6H1.5C0.671578 6 0 5.32842 0 4.5C0 3.67158 0.671578 3 1.5 3H5.27539C5.90727 1.20736 7.59927 0.00609375 9.5 0H12.5ZM5 18.5C5 19.8807 6.1193 21 7.5 21H14.5C15.8806 20.9999 17 19.8806 17 18.5V6H5V18.5ZM8.5 9C9.32831 9.00013 10 9.67166 10 10.5V16.5C10 17.3283 9.32831 17.9999 8.5 18C7.67158 18 7 17.3284 7 16.5V10.5C7 9.67158 7.67158 9 8.5 9ZM13.5 9C14.3283 9.00016 15 9.67168 15 10.5V16.5C15 17.3283 14.3283 17.9998 13.5 18C12.6716 18 12 17.3284 12 16.5V10.5C12 9.67158 12.6716 9 13.5 9Z" fill="#EBEBEB"/>
</svg>
